<svg id="Component_5_1" data-name="Component 5 – 1" xmlns="http://www.w3.org/2000/svg" xmlns:xlink="http://www.w3.org/1999/xlink" width="101" height="100" viewBox="0 0 101 100">
  <defs>
    <clipPath id="clip-path">
      <rect id="Rectangle_29" data-name="Rectangle 29" width="101" height="100" transform="translate(-0.203 -0.133)" fill="#4a5759"/>
    </clipPath>
  </defs>
  <g id="Group_58" data-name="Group 58" transform="translate(0.203 0.133)" clip-path="url(#clip-path)">
    <path id="Path_6" data-name="Path 6" d="M84.237,16.381c-10.673.264-21.809,5.373-24.931,16.417,4.259-10.175,14.688-13.922,24.959-13.417a49.916,49.916,0,0,1,5.031.434,27.066,27.066,0,0,0-9.543,16.4,39.529,39.529,0,0,0,.909,17.279c.381,1.259,1.12,3.6,1.486,4.852a18.578,18.578,0,0,1,.24,10.6c-2.127,7.092-7.235,12.7-13.073,17.19,1.844-16.268-.766-32.607-11.739-45.672C46.68,27.551,30.333,20.82,14.106,18.2A119.566,119.566,0,0,0,0,17.14c.615,1.148,3.275,6.23,3.835,7.395a62.752,62.752,0,0,1,3.427,9.312A49.889,49.889,0,0,1,9.221,53.263c-.087,1.021-.256,2.192-.288,3.23C7.827,74.531,17.4,91.6,34.81,97.32a51.451,51.451,0,0,0,13.921,2.566L49.1,98.4A58.717,58.717,0,0,0,50.112,76.58c-1.05-7.121-3.949-14.191-9.106-19.224,8.448,10.68,8.329,25.635,4.885,38.31-14.9-2.61-26.6-11.933-29.458-27.564a39.116,39.116,0,0,1-.506-11.06,79.77,79.77,0,0,0,.886-9.317,64.282,64.282,0,0,0-3.677-21.306C27.4,28.891,41.7,35.017,51.1,46.022,62.237,59.081,63.3,77.184,60.16,93.65l-1.578,8.373c3.367-1.928,9.323-5.076,12.337-7.428C83.426,85.514,94.3,70.987,87.582,54.906c-.306-.874-1.072-2.874-1.3-3.753-2.969-9.445-2.317-20.433,5.044-27.625,2.2-2.384,6.435-4.246,9.262-5.791-5.238-.708-11.07-1.665-16.356-1.357" transform="translate(0 -2.289)" fill="#4a5759"/>
    <path id="Path_7" data-name="Path 7" d="M53.934,6.538c5.451,1.428,10.673,3.374,16.118,5.043C66.38,5.543,59.923,1.752,53.254,0A36.48,36.48,0,0,0,39.693,10.62a15.148,15.148,0,0,0-2.5,4.928c1.583-.961,3.057-1.775,4.548-2.577,3.759-1.984,8.317-4.346,12.2-6.439Z" transform="translate(-5.215)" fill="#4a5759"/>
  </g>
</svg>
