<svg xmlns="http://www.w3.org/2000/svg" width="53.289" height="40.297" viewBox="0 0 53.289 40.297">
  <g id="Group_67" data-name="Group 67" transform="translate(-1060.71 -1859.999)">
    <path id="Path_12" data-name="Path 12" d="M43.016,23.339h0a22.422,22.422,0,0,1-4.533,7.9L31.46,40.3l5.607-.1c2.681,0,3.965-.3,5.322-1.752C47.2,33.283,58.1,20.687,58.082,12.6c0-.048-.006-.084-.007-.13.009-.191.029-.379.029-.573,0-8.625-9.182-15.106-18.3-10.2a9.337,9.337,0,0,0-3.8,3.8c-4.267,7.961.113,15.925,7.012,17.848" transform="translate(1055.895 1860)" fill="#4a5759"/>
    <path id="Path_13" data-name="Path 13" d="M11.556,23.339h0a22.422,22.422,0,0,1-4.533,7.9L0,40.3l5.607-.1c2.681,0,3.965-.3,5.322-1.752C15.738,33.283,26.64,20.687,26.622,12.6c0-.048-.006-.084-.007-.13.009-.191.029-.379.029-.573,0-8.625-9.182-15.106-18.3-10.2a9.337,9.337,0,0,0-3.8,3.8c-4.267,7.961.113,15.925,7.012,17.848" transform="translate(1060.71 1860)" fill="#4a5759"/>
  </g>
</svg>
