<svg width="16" height="16" viewBox="0 0 16 16" fill="none" xmlns="http://www.w3.org/2000/svg">
    <path d="M14 6H2C0.875 6 0 6.90625 0 8V11C0 11.5625 0.4375 12 1 12H2V15C2 15.5625 2.4375 16 3 16H13C13.5312 16 14 15.5625 14 15V12H15C15.5312 12 16 11.5625 16 11V8C16 6.90625 15.0938 6 14 6ZM12 14H4V11H12V14ZM13.5 9.25C13.0625 9.25 12.75 8.9375 12.75 8.5C12.75 8.09375 13.0625 7.75 13.5 7.75C13.9062 7.75 14.25 8.09375 14.25 8.5C14.25 8.9375 13.9062 9.25 13.5 9.25ZM4 2H11.1562L12 2.84375V5H14V2.4375C14 2.15625 13.875 1.90625 13.6875 1.71875L12.2812 0.3125C12.0938 0.125 11.8438 0 11.5625 0H3C2.4375 0 2 0.46875 2 1V5H4V2Z" fill="#242424"></path>
</svg>